<?xml version="1.0" encoding="utf-8"?>
<!-- Generator: Adobe Illustrator 28.3.0, SVG Export Plug-In . SVG Version: 6.00 Build 0)  -->
<svg version="1.1" id="Capa_1" xmlns="http://www.w3.org/2000/svg" xmlns:xlink="http://www.w3.org/1999/xlink" x="0px" y="0px"
	 viewBox="0 0 1920 376" style="enable-background:new 0 0 1920 376;" xml:space="preserve">
<style type="text/css">
	.st0{fill:#FD5C63;}
</style>
<g>
	<g>
		<path d="M620.2,305.1h-80.4l-13.3,38.5H484l72.6-202.2h47.2l72.6,202.2h-42.8L620.2,305.1z M609.2,272.7L580,188.2l-29.2,84.5
			H609.2z"/>
		<path d="M702.8,219.7c6.5-12.5,15.3-22.2,26.5-28.9c11.2-6.7,23.6-10.1,37.3-10.1c10.4,0,20.3,2.3,29.8,6.8
			c9.4,4.5,17,10.6,22.6,18.1v-76.1H860v214.1H819v-23.7c-5,7.9-12.1,14.3-21.1,19.1c-9.1,4.8-19.6,7.2-31.5,7.2
			c-13.5,0-25.8-3.5-37-10.4c-11.2-6.9-20-16.7-26.5-29.4c-6.5-12.6-9.7-27.1-9.7-43.5C693.1,246.6,696.3,232.3,702.8,219.7z
			 M813.5,238.1c-3.9-7-9.1-12.4-15.6-16.2c-6.6-3.8-13.6-5.6-21.1-5.6c-7.5,0-14.5,1.8-20.8,5.5c-6.4,3.7-11.5,9-15.5,16.1
			c-4,7-5.9,15.4-5.9,25c0,9.6,2,18.1,5.9,25.3c4,7.2,9.2,12.8,15.6,16.6c6.5,3.9,13.4,5.8,20.7,5.8c7.5,0,14.6-1.9,21.1-5.6
			c6.6-3.8,11.8-9.2,15.6-16.2c3.9-7,5.8-15.5,5.8-25.3C819.3,253.6,817.3,245.1,813.5,238.1z"/>
		<path d="M1146.3,199c12.1,12.1,18.1,28.9,18.1,50.5v94h-40.5V255c0-12.5-3.2-22.1-9.5-28.8c-6.4-6.7-15-10-26-10
			c-11,0-19.7,3.3-26.2,10c-6.5,6.7-9.7,16.3-9.7,28.8v88.5h-40.5V255c0-12.5-3.2-22.1-9.5-28.8c-6.4-6.7-15-10-26-10
			c-11.2,0-20,3.3-26.5,10c-6.5,6.7-9.7,16.3-9.7,28.8v88.5h-40.5V183.3h40.5v19.4c5.2-6.7,11.9-12.1,20.1-15.9
			c8.2-3.9,17.2-5.8,27-5.8c12.5,0,23.7,2.7,33.6,8c9.8,5.3,17.5,12.9,22.9,22.7c5.2-9.3,12.8-16.7,22.7-22.3
			c9.9-5.6,20.7-8.4,32.3-8.4C1118.4,181,1134.3,187,1146.3,199z"/>
		<path d="M1205.6,157.4c-4.7-4.5-7.1-10.2-7.1-16.9c0-6.7,2.4-12.4,7.1-16.9c4.7-4.5,10.7-6.8,17.8-6.8c7.1,0,13.1,2.3,17.8,6.8
			c4.7,4.5,7.1,10.2,7.1,16.9c0,6.8-2.4,12.4-7.1,16.9c-4.7,4.5-10.7,6.8-17.8,6.8C1216.3,164.2,1210.3,161.9,1205.6,157.4z
			 M1243.4,183.3v160.3h-40.5V183.3H1243.4z"/>
		<path class="st0" d="M1450.8,141.6v201.9h-40.5v-85.9h-86.5v85.9h-40.5V141.6h40.5v83h86.5v-83H1450.8z"/>
		<path class="st0" d="M1520.2,335.9c-12.3-6.8-22-16.5-29.1-29.1c-7-12.5-10.6-27-10.6-43.4c0-16.4,3.6-30.9,10.8-43.4
			c7.2-12.5,17.1-22.2,29.7-29.1c12.5-6.8,26.5-10.3,41.9-10.3c15.4,0,29.4,3.4,41.9,10.3c12.5,6.8,22.4,16.5,29.7,29.1
			c7.2,12.5,10.8,27,10.8,43.4c0,16.4-3.7,30.9-11.1,43.4c-7.4,12.5-17.5,22.2-30.1,29.1c-12.6,6.8-26.8,10.3-42.4,10.3
			C1546.5,346.2,1532.6,342.7,1520.2,335.9z M1582.6,305.5c6.5-3.6,11.6-8.9,15.5-16.1c3.9-7.1,5.8-15.8,5.8-26c0-15.2-4-27-12-35.2
			c-8-8.2-17.8-12.3-29.4-12.3c-11.6,0-21.3,4.1-29.1,12.3c-7.8,8.2-11.7,19.9-11.7,35.2c0,15.2,3.8,27,11.4,35.2
			c7.6,8.2,17.2,12.3,28.8,12.3C1569.2,310.9,1576.1,309.1,1582.6,305.5z"/>
		<path class="st0" d="M1701.3,339.1c-10.4-4.7-18.7-11.1-24.7-19.2c-6.1-8.1-9.4-17.1-10-26.9h40.8c0.8,6.2,3.8,11.3,9.1,15.3
			c5.3,4.1,11.9,6.1,19.8,6.1c7.7,0,13.7-1.5,18.1-4.6c4.3-3.1,6.5-7,6.5-11.9c0-5.2-2.7-9.1-8-11.7c-5.3-2.6-13.7-5.4-25.3-8.5
			c-12-2.9-21.7-5.9-29.4-9c-7.6-3.1-14.2-7.8-19.7-14.2c-5.5-6.4-8.2-14.9-8.2-25.7c0-8.9,2.6-17,7.7-24.3
			c5.1-7.3,12.4-13.1,22-17.4c9.5-4.2,20.8-6.4,33.7-6.4c19.1,0,34.3,4.8,45.7,14.3c11.4,9.5,17.6,22.4,18.8,38.6h-38.8
			c-0.6-6.4-3.2-11.4-8-15.2c-4.7-3.8-11-5.6-18.9-5.6c-7.3,0-13,1.4-16.9,4.1c-4,2.7-5.9,6.5-5.9,11.3c0,5.4,2.7,9.5,8.1,12.3
			c5.4,2.8,13.8,5.6,25.2,8.5c11.6,2.9,21.1,5.9,28.6,9c7.5,3.1,14,7.9,19.5,14.3c5.5,6.5,8.3,15,8.5,25.6c0,9.3-2.6,17.6-7.7,24.9
			c-5.1,7.3-12.4,13.1-22,17.2c-9.5,4.1-20.7,6.2-33.4,6.2C1723.5,346.2,1711.8,343.8,1701.3,339.1z"/>
		<path class="st0" d="M1880.1,216.5v77.5c0,5.4,1.3,9.3,3.9,11.7c2.6,2.4,7,3.6,13.2,3.6h18.8v34.1h-25.5
			c-34.1,0-51.2-16.6-51.2-49.8v-77.2h-19.1v-33.3h19.1v-39.6h40.8v39.6h35.9v33.3H1880.1z"/>
	</g>
	<g>
		
			<rect x="201.8" y="186.8" transform="matrix(6.123234e-17 -1 1 6.123234e-17 -112.9609 538.27)" class="st0" width="21.7" height="277.7"/>
		<g>
			<rect x="74" y="89.9" class="st0" width="21.7" height="283.5"/>
			<rect x="330" y="89.9" class="st0" width="21.7" height="283.5"/>
			<polygon points="224.3,29.8 201.2,29.8 74,373.4 97.1,373.4 			"/>
			<polygon points="201.4,29.8 224.5,29.8 351.7,373.4 328.5,373.4 			"/>
			<polygon class="st0" points="422.6,125.8 411.7,144.6 212.9,29.8 14,144.6 3.1,125.8 212.8,4.7 212.9,4.7 212.9,4.7 			"/>
		</g>
	</g>
</g>
</svg>
